<?xml version="1.0" encoding="us-ascii" standalone="no"?><svg xmlns="http://www.w3.org/2000/svg" xmlns:xlink="http://www.w3.org/1999/xlink" contentStyleType="text/css" height="507.2917px" preserveAspectRatio="none" style="width:555px;height:507px;" version="1.1" viewBox="0 0 555 507" width="555.2083px" zoomAndPan="magnify"><defs/><g><rect fill="#FFBBBB" height="250.8464" style="stroke:#BABDBF;stroke-width:1.0416666666666667;" width="10.4167" x="157.8125" y="140.5599"/><rect fill="#FFD700" height="118.6523" style="stroke:#BABDBF;stroke-width:1.0416666666666667;" width="10.4167" x="331.25" y="180.1107"/><rect fill="#005500" height="39.5508" style="stroke:#BABDBF;stroke-width:1.0416666666666667;" width="10.4167" x="506.7708" y="219.6615"/><line style="stroke:#BABDBF;stroke-width:1.0416666666666667;stroke-dasharray:5.0,5.0;" x1="38.5417" x2="38.5417" y1="98.9258" y2="410.1563"/><line style="stroke:#BABDBF;stroke-width:1.0416666666666667;stroke-dasharray:5.0,5.0;" x1="163.0208" x2="163.0208" y1="98.9258" y2="410.1563"/><line style="stroke:#BABDBF;stroke-width:1.0416666666666667;stroke-dasharray:5.0,5.0;" x1="335.9375" x2="335.9375" y1="98.9258" y2="410.1563"/><line style="stroke:#BABDBF;stroke-width:1.0416666666666667;stroke-dasharray:5.0,5.0;" x1="511.9792" x2="511.9792" y1="98.9258" y2="410.1563"/><text fill="#2FA4E7" font-family="Verdana" font-size="12.5" lengthAdjust="spacing" textLength="30.2083" x="20.8333" y="90.7694">User</text><ellipse cx="39.0625" cy="19.7917" fill="none" rx="8.3333" ry="8.3333" style="stroke:#2FA4E7;stroke-width:1.0416666666666667;"/><path d="M39.0625,28.125 L39.0625,56.25 M25.5208,36.4583 L52.6042,36.4583 M39.0625,56.25 L25.5208,71.875 M39.0625,56.25 L52.6042,71.875 " fill="none" style="stroke:#2FA4E7;stroke-width:1.0416666666666667;"/><text fill="#2FA4E7" font-family="Verdana" font-size="12.5" lengthAdjust="spacing" textLength="30.2083" x="20.8333" y="425.9257">User</text><ellipse cx="39.0625" cy="443.457" fill="none" rx="8.3333" ry="8.3333" style="stroke:#2FA4E7;stroke-width:1.0416666666666667;"/><path d="M39.0625,451.7904 L39.0625,479.9154 M25.5208,460.1237 L52.6042,460.1237 M39.0625,479.9154 L25.5208,495.5404 M39.0625,479.9154 L52.6042,495.5404 " fill="none" style="stroke:#2FA4E7;stroke-width:1.0416666666666667;"/><rect fill="none" height="39.5508" rx="4.1667" ry="4.1667" style="stroke:#2FA4E7;stroke-width:1.0416666666666667;" width="60.4167" x="132.8125" y="58.3333"/><text fill="#2FA4E7" font-family="Verdana" font-size="12.5" lengthAdjust="spacing" textLength="35.4167" x="145.3125" y="82.4361">Sales</text><rect fill="none" height="39.5508" rx="4.1667" ry="4.1667" style="stroke:#2FA4E7;stroke-width:1.0416666666666667;" width="60.4167" x="132.8125" y="409.1146"/><text fill="#2FA4E7" font-family="Verdana" font-size="12.5" lengthAdjust="spacing" textLength="35.4167" x="145.3125" y="433.2174">Sales</text><rect fill="none" height="39.5508" rx="4.1667" ry="4.1667" style="stroke:#2FA4E7;stroke-width:1.0416666666666667;" width="98.9583" x="286.9792" y="58.3333"/><text fill="#2FA4E7" font-family="Verdana" font-size="12.5" lengthAdjust="spacing" textLength="73.9583" x="299.4792" y="82.4361">Warehouse</text><rect fill="none" height="39.5508" rx="4.1667" ry="4.1667" style="stroke:#2FA4E7;stroke-width:1.0416666666666667;" width="98.9583" x="286.9792" y="409.1146"/><text fill="#2FA4E7" font-family="Verdana" font-size="12.5" lengthAdjust="spacing" textLength="73.9583" x="299.4792" y="433.2174">Warehouse</text><rect fill="none" height="39.5508" rx="4.1667" ry="4.1667" style="stroke:#2FA4E7;stroke-width:1.0416666666666667;" width="64.5833" x="479.6875" y="58.3333"/><text fill="#2FA4E7" font-family="Verdana" font-size="12.5" lengthAdjust="spacing" textLength="39.5833" x="492.1875" y="82.4361">Picker</text><rect fill="none" height="39.5508" rx="4.1667" ry="4.1667" style="stroke:#2FA4E7;stroke-width:1.0416666666666667;" width="64.5833" x="479.6875" y="409.1146"/><text fill="#2FA4E7" font-family="Verdana" font-size="12.5" lengthAdjust="spacing" textLength="39.5833" x="492.1875" y="433.2174">Picker</text><rect fill="#FFBBBB" height="250.8464" style="stroke:#BABDBF;stroke-width:1.0416666666666667;" width="10.4167" x="157.8125" y="140.5599"/><rect fill="#FFD700" height="118.6523" style="stroke:#BABDBF;stroke-width:1.0416666666666667;" width="10.4167" x="331.25" y="180.1107"/><rect fill="#005500" height="39.5508" style="stroke:#BABDBF;stroke-width:1.0416666666666667;" width="10.4167" x="506.7708" y="219.6615"/><polygon fill="#2FA4E7" points="145.3125,136.3932,155.7292,140.5599,145.3125,144.7266,149.4792,140.5599" style="stroke:#2FA4E7;stroke-width:1.0416666666666667;"/><line style="stroke:#2FA4E7;stroke-width:3.125;" x1="39.0625" x2="151.5625" y1="140.5599" y2="140.5599"/><text fill="#343A40" font-family="Verdana" font-size="12.5" lengthAdjust="spacing" textLength="88.5417" x="51.5625" y="130.3202">ProcessOrder</text><polygon fill="#2FA4E7" points="318.75,175.944,329.1667,180.1107,318.75,184.2773,322.9167,180.1107" style="stroke:#2FA4E7;stroke-width:1.0416666666666667;"/><line style="stroke:#2FA4E7;stroke-width:3.125;" x1="168.2292" x2="325" y1="180.1107" y2="180.1107"/><text fill="#343A40" font-family="Verdana" font-size="12.5" lengthAdjust="spacing" textLength="82.2917" x="180.7292" y="169.871">&#171;packOrder&#187;</text><polygon fill="#2FA4E7" points="494.2708,215.4948,504.6875,219.6615,494.2708,223.8281,498.4375,219.6615" style="stroke:#2FA4E7;stroke-width:1.0416666666666667;"/><line style="stroke:#2FA4E7;stroke-width:3.125;" x1="341.6667" x2="500.5208" y1="219.6615" y2="219.6615"/><text fill="#343A40" font-family="Verdana" font-size="12.5" lengthAdjust="spacing" textLength="81.25" x="354.1667" y="209.4218">GetProducts</text><polygon fill="#2FA4E7" points="353.125,255.0456,342.7083,259.2122,353.125,263.3789,348.9583,259.2122" style="stroke:#2FA4E7;stroke-width:1.0416666666666667;"/><line style="stroke:#2FA4E7;stroke-width:3.125;stroke-dasharray:2.0,2.0;" x1="346.875" x2="510.9375" y1="259.2122" y2="259.2122"/><text fill="#343A40" font-family="Verdana" font-size="12.5" lengthAdjust="spacing" textLength="118.75" x="364.5833" y="248.9726">ProductsCollected</text><polygon fill="#2FA4E7" points="179.6875,294.5964,169.2708,298.763,179.6875,302.9297,175.5208,298.763" style="stroke:#2FA4E7;stroke-width:1.0416666666666667;"/><line style="stroke:#2FA4E7;stroke-width:3.125;stroke-dasharray:2.0,2.0;" x1="173.4375" x2="335.4167" y1="298.763" y2="298.763"/><text fill="#343A40" font-family="Verdana" font-size="12.5" lengthAdjust="spacing" textLength="84.375" x="191.1458" y="288.5234">OrderPacked</text><line style="stroke:#2FA4E7;stroke-width:3.125;" x1="168.2292" x2="211.9792" y1="338.3138" y2="338.3138"/><line style="stroke:#2FA4E7;stroke-width:3.125;" x1="211.9792" x2="211.9792" y1="338.3138" y2="351.8555"/><line style="stroke:#2FA4E7;stroke-width:3.125;" x1="169.2708" x2="211.9792" y1="351.8555" y2="351.8555"/><polygon fill="#2FA4E7" points="179.6875,347.6888,169.2708,351.8555,179.6875,356.0221,175.5208,351.8555" style="stroke:#2FA4E7;stroke-width:1.0416666666666667;"/><text fill="#343A40" font-family="Verdana" font-size="12.5" lengthAdjust="spacing" textLength="69.7917" x="180.7292" y="328.0741">SendOrder</text><polygon fill="#2FA4E7" points="50.5208,387.2396,40.1042,391.4063,50.5208,395.5729,46.3542,391.4063" style="stroke:#2FA4E7;stroke-width:1.0416666666666667;"/><line style="stroke:#2FA4E7;stroke-width:3.125;" x1="44.2708" x2="161.9792" y1="391.4063" y2="391.4063"/><text fill="#343A40" font-family="Verdana" font-size="12.5" lengthAdjust="spacing" textLength="66.6667" x="61.9792" y="381.1666">OrderSent</text><!--SRC=[NP3D2eCm48JlFiKMpuANNaGyjD0UAqZfEIH3bQQc9B7FtpN6dvf383lV39iv-1Pla8GTD4IVcS7hhaSYf3UMxWus6I_AAcg4XYkejaR2kPjLh14ns7s5noHJUhcS-B0mlTdt41Qj6HmAAalw2FaANgegfZO12qVfqsWLn7N6GNKdNx05NU5v2JL8xmAqoPWGIlFyUCppgCPXzh_B774sMaDwg4WhxDBsYwnLX7_K_A5etbWNVjj4j3NerLpVeeqjnqJMVVAN5gWV]--></g></svg>