<?xml version="1.0" encoding="us-ascii" standalone="no"?><svg xmlns="http://www.w3.org/2000/svg" xmlns:xlink="http://www.w3.org/1999/xlink" contentStyleType="text/css" height="604.1667px" preserveAspectRatio="none" style="width:608px;height:604px;" version="1.1" viewBox="0 0 608 604" width="608.3333px" zoomAndPan="magnify"><defs><filter height="300%" id="f3ymhdnl1r0ko" width="300%" x="-1" y="-1"><feGaussianBlur result="blurOut" stdDeviation="2.0833333333333335"/><feColorMatrix in="blurOut" result="blurOut2" type="matrix" values="0 0 0 0 0 0 0 0 0 0 0 0 0 0 0 0 0 0 .4 0"/><feOffset dx="4.166666666666667" dy="4.166666666666667" in="blurOut2" result="blurOut3"/><feBlend in="SourceGraphic" in2="blurOut3" mode="normal"/></filter></defs><g><rect fill="#FFBBBB" filter="url(#f3ymhdnl1r0ko)" height="313.3464" style="stroke:#CCCCCC;stroke-width:1.0416666666666667;" width="10.4167" x="173.4375" y="164.5182"/><rect fill="#FFD700" filter="url(#f3ymhdnl1r0ko)" height="149.9023" style="stroke:#CCCCCC;stroke-width:1.0416666666666667;" width="10.4167" x="360.4167" y="214.4857"/><rect fill="#005500" filter="url(#f3ymhdnl1r0ko)" height="49.9674" style="stroke:#CCCCCC;stroke-width:1.0416666666666667;" width="10.4167" x="549.4792" y="264.4531"/><line style="stroke:#CCCCCC;stroke-width:1.0416666666666667;stroke-dasharray:5.0,5.0;" x1="43.75" x2="43.75" y1="112.4674" y2="496.6146"/><line style="stroke:#CCCCCC;stroke-width:1.0416666666666667;stroke-dasharray:5.0,5.0;" x1="178.125" x2="178.125" y1="112.4674" y2="496.6146"/><line style="stroke:#CCCCCC;stroke-width:1.0416666666666667;stroke-dasharray:5.0,5.0;" x1="365.625" x2="365.625" y1="112.4674" y2="496.6146"/><line style="stroke:#CCCCCC;stroke-width:1.0416666666666667;stroke-dasharray:5.0,5.0;" x1="554.1667" x2="554.1667" y1="112.4674" y2="496.6146"/><text fill="#2196F3" font-family="Verdana" font-size="12.5" lengthAdjust="spacing" textLength="30.2083" x="26.0417" y="99.1028">User</text><ellipse cx="44.2708" cy="19.7917" fill="none" filter="url(#f3ymhdnl1r0ko)" rx="8.3333" ry="8.3333" style="stroke:#2196F3;stroke-width:1.0416666666666667;"/><path d="M44.2708,28.125 L44.2708,56.25 M30.7292,36.4583 L57.8125,36.4583 M44.2708,56.25 L30.7292,71.875 M44.2708,56.25 L57.8125,71.875 " fill="none" filter="url(#f3ymhdnl1r0ko)" style="stroke:#2196F3;stroke-width:1.0416666666666667;"/><text fill="#2196F3" font-family="Verdana" font-size="12.5" lengthAdjust="spacing" textLength="30.2083" x="26.0417" y="517.5924">User</text><ellipse cx="44.2708" cy="540.332" fill="none" filter="url(#f3ymhdnl1r0ko)" rx="8.3333" ry="8.3333" style="stroke:#2196F3;stroke-width:1.0416666666666667;"/><path d="M44.2708,548.6654 L44.2708,576.7904 M30.7292,556.9987 L57.8125,556.9987 M44.2708,576.7904 L30.7292,592.4154 M44.2708,576.7904 L57.8125,592.4154 " fill="none" filter="url(#f3ymhdnl1r0ko)" style="stroke:#2196F3;stroke-width:1.0416666666666667;"/><rect fill="none" filter="url(#f3ymhdnl1r0ko)" height="49.9674" rx="4.1667" ry="4.1667" style="stroke:#2196F3;stroke-width:1.0416666666666667;" width="70.8333" x="141.6667" y="58.3333"/><text fill="#2196F3" font-family="Verdana" font-size="12.5" lengthAdjust="spacing" textLength="35.4167" x="159.375" y="87.6444">Sales</text><rect fill="none" filter="url(#f3ymhdnl1r0ko)" height="49.9674" rx="4.1667" ry="4.1667" style="stroke:#2196F3;stroke-width:1.0416666666666667;" width="70.8333" x="141.6667" y="495.5729"/><text fill="#2196F3" font-family="Verdana" font-size="12.5" lengthAdjust="spacing" textLength="35.4167" x="159.375" y="524.884">Sales</text><rect fill="none" filter="url(#f3ymhdnl1r0ko)" height="49.9674" rx="4.1667" ry="4.1667" style="stroke:#2196F3;stroke-width:1.0416666666666667;" width="109.375" x="309.375" y="58.3333"/><text fill="#2196F3" font-family="Verdana" font-size="12.5" lengthAdjust="spacing" textLength="73.9583" x="327.0833" y="87.6444">Warehouse</text><rect fill="none" filter="url(#f3ymhdnl1r0ko)" height="49.9674" rx="4.1667" ry="4.1667" style="stroke:#2196F3;stroke-width:1.0416666666666667;" width="109.375" x="309.375" y="495.5729"/><text fill="#2196F3" font-family="Verdana" font-size="12.5" lengthAdjust="spacing" textLength="73.9583" x="327.0833" y="524.884">Warehouse</text><rect fill="none" filter="url(#f3ymhdnl1r0ko)" height="49.9674" rx="4.1667" ry="4.1667" style="stroke:#2196F3;stroke-width:1.0416666666666667;" width="75" x="515.625" y="58.3333"/><text fill="#2196F3" font-family="Verdana" font-size="12.5" lengthAdjust="spacing" textLength="39.5833" x="533.3333" y="87.6444">Picker</text><rect fill="none" filter="url(#f3ymhdnl1r0ko)" height="49.9674" rx="4.1667" ry="4.1667" style="stroke:#2196F3;stroke-width:1.0416666666666667;" width="75" x="515.625" y="495.5729"/><text fill="#2196F3" font-family="Verdana" font-size="12.5" lengthAdjust="spacing" textLength="39.5833" x="533.3333" y="524.884">Picker</text><rect fill="#FFBBBB" filter="url(#f3ymhdnl1r0ko)" height="313.3464" style="stroke:#CCCCCC;stroke-width:1.0416666666666667;" width="10.4167" x="173.4375" y="164.5182"/><rect fill="#FFD700" filter="url(#f3ymhdnl1r0ko)" height="149.9023" style="stroke:#CCCCCC;stroke-width:1.0416666666666667;" width="10.4167" x="360.4167" y="214.4857"/><rect fill="#005500" filter="url(#f3ymhdnl1r0ko)" height="49.9674" style="stroke:#CCCCCC;stroke-width:1.0416666666666667;" width="10.4167" x="549.4792" y="264.4531"/><polygon fill="#2196F3" points="160.9375,160.3516,171.3542,164.5182,160.9375,168.6849,165.1042,164.5182" style="stroke:#2196F3;stroke-width:1.0416666666666667;"/><line style="stroke:#2196F3;stroke-width:3.125;" x1="44.2708" x2="167.1875" y1="164.5182" y2="164.5182"/><text fill="#222222" font-family="Verdana" font-size="12.5" lengthAdjust="spacing" textLength="88.5417" x="61.9792" y="149.0702">ProcessOrder</text><polygon fill="#2196F3" points="347.9167,210.319,358.3333,214.4857,347.9167,218.6523,352.0833,214.4857" style="stroke:#2196F3;stroke-width:1.0416666666666667;"/><line style="stroke:#2196F3;stroke-width:3.125;" x1="183.8542" x2="354.1667" y1="214.4857" y2="214.4857"/><text fill="#222222" font-family="Verdana" font-size="12.5" lengthAdjust="spacing" textLength="82.2917" x="201.5625" y="199.0377">&#171;packOrder&#187;</text><polygon fill="#2196F3" points="536.9792,260.2865,547.3958,264.4531,536.9792,268.6198,541.1458,264.4531" style="stroke:#2196F3;stroke-width:1.0416666666666667;"/><line style="stroke:#2196F3;stroke-width:3.125;" x1="370.8333" x2="543.2292" y1="264.4531" y2="264.4531"/><text fill="#222222" font-family="Verdana" font-size="12.5" lengthAdjust="spacing" textLength="81.25" x="388.5417" y="249.0051">GetProducts</text><polygon fill="#2196F3" points="382.2917,310.2539,371.875,314.4206,382.2917,318.5872,378.125,314.4206" style="stroke:#2196F3;stroke-width:1.0416666666666667;"/><line style="stroke:#2196F3;stroke-width:3.125;stroke-dasharray:2.0,2.0;" x1="376.0417" x2="553.6458" y1="314.4206" y2="314.4206"/><text fill="#222222" font-family="Verdana" font-size="12.5" lengthAdjust="spacing" textLength="118.75" x="398.9583" y="298.9726">ProductsCollected</text><polygon fill="#2196F3" points="195.3125,360.2214,184.8958,364.388,195.3125,368.5547,191.1458,364.388" style="stroke:#2196F3;stroke-width:1.0416666666666667;"/><line style="stroke:#2196F3;stroke-width:3.125;stroke-dasharray:2.0,2.0;" x1="189.0625" x2="364.5833" y1="364.388" y2="364.388"/><text fill="#222222" font-family="Verdana" font-size="12.5" lengthAdjust="spacing" textLength="84.375" x="211.9792" y="348.94">OrderPacked</text><line style="stroke:#2196F3;stroke-width:3.125;" x1="183.8542" x2="227.6042" y1="414.3555" y2="414.3555"/><line style="stroke:#2196F3;stroke-width:3.125;" x1="227.6042" x2="227.6042" y1="414.3555" y2="427.8971"/><line style="stroke:#2196F3;stroke-width:3.125;" x1="184.8958" x2="227.6042" y1="427.8971" y2="427.8971"/><polygon fill="#2196F3" points="195.3125,423.7305,184.8958,427.8971,195.3125,432.0638,191.1458,427.8971" style="stroke:#2196F3;stroke-width:1.0416666666666667;"/><text fill="#222222" font-family="Verdana" font-size="12.5" lengthAdjust="spacing" textLength="69.7917" x="201.5625" y="398.9075">SendOrder</text><polygon fill="#2196F3" points="55.7292,473.6979,45.3125,477.8646,55.7292,482.0313,51.5625,477.8646" style="stroke:#2196F3;stroke-width:1.0416666666666667;"/><line style="stroke:#2196F3;stroke-width:3.125;" x1="49.4792" x2="177.6042" y1="477.8646" y2="477.8646"/><text fill="#222222" font-family="Verdana" font-size="12.5" lengthAdjust="spacing" textLength="66.6667" x="72.3958" y="462.4166">OrderSent</text><!--SRC=[NP3D2eCm48JlFiKMpq8klOXuQC4UAqZfEIHB3KPJajZdxnhZRmw1x7mpRERYM-mHUkxHAfwPqMirOCA5DnPU3cqoNP2Lq72DBeVQ6e7EFQqa3O10zIFpB4DQLJSw9CnlyhsvnTQC3dCe2lXoqGKlb2LHku2LW_HZj0pYDgEWMeaERGuFzBI478Lt0Tfbp0YaZ5slZ4Kr3hFZBal4tMYDmgECjCHJsdcHhOhmZve-5CqxwyhlcuYs1WUvrBTgKyinaNIV7D82zGS0]--></g></svg>